<?xml version="1.0" ?><!DOCTYPE svg  PUBLIC '-//W3C//DTD SVG 1.1//EN'  'http://www.w3.org/Graphics/SVG/1.1/DTD/svg11.dtd'><svg enable-background="new 0 0 70 70" id="Layer_1" version="1.1" viewBox="0 0 70 70" xml:space="preserve" xmlns="http://www.w3.org/2000/svg" xmlns:xlink="http://www.w3.org/1999/xlink"><g><path d="M35.4169922,62.0927734c-4.4482422,0-8.8417969-1.3554688-12.3701172-3.8154297   c-3.2460938-2.2617188-5.9277344-5.4814453-7.7539063-9.3085938c-2.5400391-5.3232422-2.9697266-11.1083984-1.1796875-15.8720703   c1.7871094-4.7578125,5.4501953-7.9365234,8.2089844-9.7646484c3.1943359-2.1191406,6.7285156-3.4804688,10.2207031-3.9365234   c0.8691406-0.1132813,1.7607422-0.1708984,2.6494141-0.1708984c6.0869141,0,12.1083984,2.6669922,16.109375,7.1328125   c4.6542969,5.1953125,6.5175781,12.6318359,4.8623047,19.4082031s-6.7363281,12.5166016-13.2607422,14.9824219   C40.5419922,61.640625,38.0234375,62.0927734,35.4169922,62.0927734z M35.1923828,20.7246094   c-0.8242188,0-1.6503906,0.0537109-2.4560547,0.1591797c-3.265625,0.4257813-6.5810547,1.7050781-9.5849609,3.6982422   c-2.5742188,1.7060547-5.9882813,4.6591797-7.6337891,9.0419922c-1.6474609,4.3847656-1.2363281,9.7421875,1.1289063,14.6982422   c1.7148438,3.59375,4.2246094,6.6103516,7.2578125,8.7246094c3.2792969,2.2861328,7.3681641,3.5458984,11.5126953,3.5458984   c2.4248047,0,4.7646484-0.4199219,6.9560547-1.2470703c6.0683594-2.2939453,10.7949219-7.6337891,12.3339844-13.9355469   c1.5390625-6.3027344-0.1933594-13.2197266-4.5224609-18.0527344   C46.4638672,23.2041016,40.859375,20.7246094,35.1923828,20.7246094z" fill="#5BAAF1"/><path d="M35.4306641,58.0507813c-3.5390625,0-7.0761719-1.0556641-9.9589844-2.9726563   c-3.7910156-2.5224609-6.4990234-6.5029297-7.4287109-10.9208984c-1.3847656-6.5820313,1.5087891-13.8554688,7.0380859-17.6875   c2.7783203-1.9257813,6.2675781-2.9863281,9.8251953-2.9863281c3.3408203,0,6.5244141,0.8994141,9.2070313,2.6035156   c2.3486328,1.4921875,4.359375,3.5830078,5.8125,6.0478516c1.875,3.1777344,2.7578125,6.9003906,2.4863281,10.4804688   c-0.2822266,3.7099609-1.78125,7.2324219-4.2207031,9.9189453c-2.4980469,2.7509766-5.9765625,4.6220703-9.7949219,5.2685547   C37.4257813,57.9677734,36.4277344,58.0507813,35.4306641,58.0507813z M34.90625,24.9833984   c-3.2548828,0-6.4414063,0.9648438-8.9716797,2.71875c-5.0458984,3.4980469-7.6875,10.1376953-6.4228516,16.1464844   c0.8486328,4.0361328,3.3242188,7.6738281,6.7900391,9.9804688c3.3828125,2.2490234,7.7998047,3.1796875,11.8447266,2.4951172   c3.4882813-0.5908203,6.6611328-2.2949219,8.9335938-4.7978516c2.2167969-2.4414063,3.5791016-5.6455078,3.8359375-9.0244141   c0.2490234-3.2773438-0.5615234-6.6884766-2.28125-9.6054688c-1.3349609-2.2607422-3.1757813-4.1777344-5.3261719-5.5439453   C40.8681641,25.8027344,37.9619141,24.9833984,34.90625,24.9833984z" fill="#5BAAF1"/><path d="M35.0039063,41.2490234c-0.0019531,0-0.0039063,0-0.0058594,0   c-0.4140625-0.0029297-0.7470703-0.3417969-0.7441406-0.7558594l0.0791016-10.3330078   c0.0029297-0.4121094,0.3378906-0.7441406,0.75-0.7441406c0.0019531,0,0.0039063,0,0.0058594,0   c0.4140625,0.0029297,0.7470703,0.3417969,0.7441406,0.7558594l-0.0791016,10.3330078   C35.7509766,40.9169922,35.4160156,41.2490234,35.0039063,41.2490234z" fill="#5BAAF1"/><path d="M29.7890625,46.6318359c-0.1621094,0-0.3261719-0.0527344-0.4628906-0.1611328   c-0.3261719-0.2558594-0.3818359-0.7275391-0.125-1.0527344c1.2890625-1.6357422,2.7841797-3.03125,4.2304688-4.3798828   c0.3398438-0.3164063,0.6806641-0.6337891,1.0214844-0.9570313c0.2988281-0.2861328,0.7734375-0.2744141,1.0595703,0.0283203   c0.2851563,0.2998047,0.2724609,0.7744141-0.0283203,1.0595703c-0.3427734,0.3261719-0.6875,0.6474609-1.0292969,0.9667969   c-1.4697266,1.3701172-2.8574219,2.6650391-4.0761719,4.2099609   C30.2314453,46.5341797,30.0117188,46.6318359,29.7890625,46.6318359z" fill="#5BAAF1"/><path d="M11.2773438,28.4970703c-0.1708984,0-0.3408203-0.0185547-0.5068359-0.0546875   C9.5283203,28.1660156,8.6875,26.9140625,8.5195313,25.0927734c-0.3300781-3.6230469,0.9980469-7.3320313,3.5527344-9.9208984   c2.5507813-2.5849609,6.2119141-3.9609375,9.8740234-3.6855469c1.4580078,0.1132813,2.5625,0.4980469,3.3779297,1.1748047   c0.9833984,0.8164063,1.6533203,2.3564453,1.0322266,3.7207031c-0.3134766,0.6875-0.8769531,1.1591797-1.3291016,1.5380859   l-11.1464844,9.3378906C13.1123047,27.9013672,12.2646484,28.4970703,11.2773438,28.4970703z M21.0146484,12.9501953   c-2.9072266,0-5.8515625,1.2246094-7.8740234,3.2744141c-2.2490234,2.2792969-3.4179688,5.5429688-3.1269531,8.7314453   c0.0771484,0.8388672,0.40625,1.8720703,1.0820313,2.0214844c0.5361328,0.1230469,1.2021484-0.3515625,1.8222656-0.8701172   l11.1464844-9.3378906c0.3710938-0.3105469,0.7548828-0.6318359,0.9267578-1.0097656   c0.2949219-0.6474609-0.0859375-1.4970703-0.625-1.9443359c-0.5693359-0.4726563-1.3984375-0.7451172-2.5371094-0.8330078   C21.5585938,12.9609375,21.2861328,12.9501953,21.0146484,12.9501953z" fill="#5BAAF1"/><path d="M57.6904297,28.4453125c-1.5107422,0-2.7744141-1.1015625-3.8115234-2.1787109l-8.9199219-9.2714844   c-0.40625-0.4208984-1.0205078-1.0576172-1.1162109-1.9277344c-0.1679688-1.5234375,1.2119141-2.5478516,2.5595703-2.9990234   c1.1210938-0.3759766,2.3066406-0.5654297,3.5253906-0.5654297c2.7216797,0,5.3339844,0.9306641,7.3544922,2.6220703   c2.9550781,2.4726563,4.5019531,6.5351563,3.9404297,10.3476563c-0.3066406,2.0820313-1.3642578,3.5361328-2.8300781,3.8896484   C58.1630859,28.4169922,57.9267578,28.4453125,57.6904297,28.4453125z M49.9277344,13.0029297   c-1.0566406,0-2.0820313,0.1640625-3.0488281,0.4873047c-0.7900391,0.2646484-1.6103516,0.8193359-1.5458984,1.4121094   c0.0371094,0.3349609,0.3417969,0.6748047,0.7060547,1.0527344l8.9199219,9.2705078   c0.8662109,0.9003906,2.0371094,1.9345703,3.0820313,1.6777344c0.9990234-0.2402344,1.5322266-1.5263672,1.6972656-2.6494141   c0.4873047-3.3085938-0.8544922-6.8330078-3.4189453-8.9785156C54.59375,13.8310547,52.2636719,13.0029297,49.9277344,13.0029297z" fill="#5BAAF1"/><path d="M48.6123047,25.2685547c-0.2138672,0-0.4257813-0.0908203-0.5742188-0.2675781   c-0.2666016-0.3164063-0.2255859-0.7900391,0.0917969-1.0566406l2.25-1.9160156   c0.296875-0.2880859,0.7724609-0.2822266,1.0605469,0.015625c0.2880859,0.296875,0.28125,0.7714844-0.015625,1.0605469   l-0.2080078,0.2011719l-2.1220703,1.7871094C48.9541016,25.2109375,48.7832031,25.2685547,48.6123047,25.2685547z" fill="#5BAAF1"/><path d="M21.3564453,25.2275391c-0.1992188,0-0.3974609-0.0791016-0.5449219-0.234375l-2.2695313-2.3974609   c-0.2841797-0.3007813-0.2714844-0.7753906,0.0292969-1.0605469c0.2988281-0.2832031,0.7724609-0.2734375,1.0605469,0.0292969   l2.2695313,2.3974609c0.2841797,0.3007813,0.2714844,0.7753906-0.0292969,1.0605469   C21.7265625,25.1591797,21.5419922,25.2275391,21.3564453,25.2275391z" fill="#5BAAF1"/><path d="M57.5625,14.9794922c-0.1884766,0-0.3779297-0.0712891-0.5234375-0.2128906   c-0.296875-0.2900391-0.3027344-0.7646484-0.0136719-1.0605469l1.0703125-1.0957031   c0.2910156-0.296875,0.765625-0.3017578,1.0605469-0.0136719c0.296875,0.2900391,0.3027344,0.7646484,0.0136719,1.0605469   l-1.0703125,1.0957031C57.9521484,14.9042969,57.7578125,14.9794922,57.5625,14.9794922z" fill="#5BAAF1"/><path d="M12.9560547,15.8867188c-0.2236328,0-0.4443359-0.0986328-0.5917969-0.2880859l-1.4277344-1.8242188   c-0.2548828-0.3261719-0.1972656-0.7978516,0.1279297-1.0537109c0.3271484-0.2568359,0.7978516-0.1972656,1.0537109,0.1279297   l1.4277344,1.8261719c0.2548828,0.3261719,0.1972656,0.7978516-0.1289063,1.0527344   C13.2802734,15.8349609,13.1171875,15.8867188,12.9560547,15.8867188z" fill="#5BAAF1"/><path d="M35.125,20.4150391c-0.4023438,0-0.7353516-0.3183594-0.75-0.7236328l-0.1806641-5.1660156   c-0.0136719-0.4140625,0.3095703-0.7617188,0.7236328-0.7763672c0.4121094,0.0068359,0.7617188,0.3095703,0.7763672,0.7236328   L35.875,19.6386719c0.0136719,0.4140625-0.3095703,0.7617188-0.7236328,0.7763672   C35.1425781,20.4150391,35.1337891,20.4150391,35.125,20.4150391z" fill="#5BAAF1"/><path d="M31.8173828,14.859375c-0.3349609,0-0.6396484-0.2265625-0.7255859-0.5654297   c-0.1025391-0.4023438,0.140625-0.8095703,0.5419922-0.9111328c2.1416016-0.5419922,4.3388672-0.6845703,6.5341797-0.4257813   c0.4111328,0.0488281,0.7050781,0.421875,0.65625,0.8339844c-0.0498047,0.4101563-0.4150391,0.6943359-0.8339844,0.65625   c-2.0107422-0.2392578-4.0263672-0.1074219-5.9873047,0.3886719C31.9404297,14.8525391,31.8789063,14.859375,31.8173828,14.859375z   " fill="#5BAAF1"/><path d="M12.8691406,15.1386719c-0.1611328,0-0.3232422-0.0517578-0.4599609-0.1582031   c-0.3271484-0.2548828-0.3847656-0.7265625-0.1308594-1.0527344c3.1953125-4.0976563,8.390625-6.9150391,15.4414063-8.375   c5.8232422-1.2050781,11.2099609-1.2470703,16.015625-0.125c5.6386719,1.3183594,10.4853516,4.2949219,13.6455078,8.3808594   c0.2529297,0.328125,0.1923828,0.7988281-0.1347656,1.0527344c-0.328125,0.2539063-0.7978516,0.1933594-1.0527344-0.1347656   c-2.9492188-3.8144531-7.4951172-6.5976563-12.7998047-7.8378906c-4.5927734-1.0732422-9.7636719-1.0283203-15.3691406,0.1328125   c-6.6933594,1.3857422-11.5927734,4.0195313-14.5625,7.828125C13.3134766,15.0390625,13.0927734,15.1386719,12.8691406,15.1386719z   " fill="#5BAAF1"/><path d="M16.8476563,65.4130859c-0.2724609,0-0.4824219-0.0839844-0.6240234-0.1689453   c-2.1621094-1.2929688,1.8994141-9.9785156,2.5537109-11.1689453c0.1992188-0.3623047,0.65625-0.4980469,1.0185547-0.2958984   c0.3632813,0.1992188,0.4951172,0.6552734,0.2958984,1.0185547c-1.7050781,3.1015625-3.1533203,7.7451172-3.0400391,9.0351563   c1.0146484-0.5478516,3.5048828-3.7080078,4.9980469-6.4072266c0.1992188-0.3613281,0.6533203-0.4951172,1.0195313-0.2929688   c0.3623047,0.2001953,0.4931641,0.6572266,0.2929688,1.0195313c-0.9648438,1.7431641-4.2089844,6.6904297-6.1230469,7.2060547   C17.0976563,65.3974609,16.9667969,65.4130859,16.8476563,65.4130859z" fill="#5BAAF1"/><path d="M53.1738281,65.6914063c-1.1103516,0-2.0380859-1.4462891-3.2695313-3.3652344   c-0.9580078-1.4921875-2.0429688-3.1845703-3.1464844-3.9785156c-0.3369141-0.2412109-0.4130859-0.7099609-0.1708984-1.0458984   c0.2421875-0.3369141,0.7109375-0.4140625,1.0458984-0.1708984c1.3359375,0.9599609,2.5039063,2.7802734,3.5341797,4.3857422   c0.5908203,0.9199219,1.4541016,2.265625,1.9238281,2.5996094c0.359375-1.1503906-0.5859375-6.1191406-2.0253906-10.4951172   c-0.1289063-0.3935547,0.0849609-0.8173828,0.4785156-0.9472656c0.3964844-0.1298828,0.8173828,0.0859375,0.9472656,0.4785156   c0.0302734,0.09375,3.0742188,9.4160156,1.8759766,11.7802734c-0.2197266,0.4345703-0.5371094,0.6132813-0.7636719,0.6875   C53.4570313,65.6679688,53.3134766,65.6914063,53.1738281,65.6914063z" fill="#5BAAF1"/><path d="M57.8496094,24.2539063c-0.3955078,0-0.7265625-0.3105469-0.7480469-0.7109375   c-0.0957031-1.8271484-0.9199219-3.5888672-2.2607422-4.8330078C53.5,17.4667969,51.7177734,16.7773438,49.8515625,16.8183594   c-0.0048828,0-0.0107422,0-0.0166016,0c-0.40625,0-0.7402344-0.3242188-0.75-0.7333984   c-0.0087891-0.4140625,0.3183594-0.7568359,0.7333984-0.7666016c2.1845703-0.0224609,4.4189453,0.7851563,6.0419922,2.2919922   c1.625,1.5068359,2.6230469,3.640625,2.7392578,5.8544922c0.0214844,0.4130859-0.2958984,0.7666016-0.7099609,0.7880859   C57.8769531,24.2539063,57.8632813,24.2539063,57.8496094,24.2539063z" fill="#5BAAF1"/><path d="M12.1630859,23.7363281c-0.0390625,0-0.0791016-0.0029297-0.1191406-0.0097656   c-0.4091797-0.0644531-0.6875-0.4492188-0.6220703-0.8583984c0.3496094-2.1972656,1.5322266-4.2695313,3.2431641-5.6865234   c1.7128906-1.4179688,3.9492188-2.1748047,6.1914063-2.1279297c0.4140625,0.0126953,0.7392578,0.3583984,0.7275391,0.7724609   c-0.0126953,0.40625-0.3457031,0.7275391-0.75,0.7275391c-0.0068359,0-0.0146484,0-0.0224609,0   c-1.8408203-0.0761719-3.7548828,0.5947266-5.1894531,1.7841797c-1.4345703,1.1865234-2.4257813,2.9238281-2.7197266,4.7666016   C12.84375,23.4736328,12.5253906,23.7363281,12.1630859,23.7363281z" fill="#5BAAF1"/></g></svg>